<svg xmlns="http://www.w3.org/2000/svg" width="532" height="421" viewBox="0 0 532 421" fill="none">
  <defs>
    <clipPath id="bgblur_clip_path">
      <path d="M493.6 40C507.041 40 513.762 40 518.896 42.6158C523.412 44.9168 527.083 48.5883 529.384 53.1042C532 58.2381 532 64.9587 532 78.4L532 382.598C532 396.04 532 402.76 529.384 407.894C527.083 412.41 523.412 416.082 518.896 418.383C513.762 420.998 507.041 420.998 493.6 420.998L38.4 420.998C24.9587 420.998 18.2381 420.998 13.1042 418.382C8.58833 416.082 4.9168 412.41 2.61584 407.894C-7.05411e-06 402.76 -5.68371e-06 396.04 -2.94291e-06 382.598L6.69161e-05 40L6.45447e-05 38.4C4.46225e-05 24.9588 3.46614e-05 18.2381 2.61588 13.1042C4.91683 8.58834 8.58837 4.9168 13.1043 2.61583C18.2381 -1.52662e-05 24.9588 -1.52658e-05 38.4001 -1.52649e-05L157.844 -1.52569e-05C167.222 -1.52563e-05 171.911 -1.5256e-05 176.496 0.667305C180.567 1.2599 184.572 2.24374 188.455 3.60514C192.827 5.13821 196.982 7.31082 205.292 11.656L237.208 28.3439C245.518 32.6892 249.673 34.8618 254.045 36.3948C257.928 37.7562 261.933 38.7401 266.004 39.3327C270.589 40 275.278 40 284.656 40L493.6 40Z" />
    </clipPath>
  </defs>

  <!-- 背景网格 -->
  <rect x="0" y="0" width="532" height="421" fill="#f0f0f0" rx="8" />

  <!-- 用 clipPath 裁剪出一个实色填充的文件夹形状 -->
  <g clip-path="url(#bgblur_clip_path)">
    <!-- 文件夹内部填充 -->
    <rect x="0" y="0" width="532" height="421" fill="rgba(255,255,255,0.8)" stroke="none" />

    <!-- 模拟毛玻璃背后的内容：几行彩色条纹 -->
    <rect x="30" y="60" width="200" height="16" rx="4" fill="#333" opacity="0.5" />
    <rect x="30" y="90" width="320" height="12" rx="4" fill="#666" opacity="0.4" />
    <rect x="30" y="116" width="260" height="12" rx="4" fill="#666" opacity="0.4" />
    <rect x="30" y="160" width="220" height="80" rx="8" fill="#1a73e8" opacity="0.15" />
    <rect x="270" y="160" width="220" height="80" rx="8" fill="#ea4335" opacity="0.12" />
    <rect x="30" y="260" width="460" height="6" rx="3" fill="#999" opacity="0.25" />
    <rect x="30" y="278" width="400" height="6" rx="3" fill="#999" opacity="0.25" />
    <rect x="30" y="296" width="350" height="6" rx="3" fill="#999" opacity="0.25" />
  </g>

  <!-- 文件夹边框（用同样的 path 描边） -->
  <path d="M493.6 40C507.041 40 513.762 40 518.896 42.6158C523.412 44.9168 527.083 48.5883 529.384 53.1042C532 58.2381 532 64.9587 532 78.4L532 382.598C532 396.04 532 402.76 529.384 407.894C527.083 412.41 523.412 416.082 518.896 418.383C513.762 420.998 507.041 420.998 493.6 420.998L38.4 420.998C24.9587 420.998 18.2381 420.998 13.1042 418.382C8.58833 416.082 4.9168 412.41 2.61584 407.894C-7.05411e-06 402.76 -5.68371e-06 396.04 -2.94291e-06 382.598L6.69161e-05 40L6.45447e-05 38.4C4.46225e-05 24.9588 3.46614e-05 18.2381 2.61588 13.1042C4.91683 8.58834 8.58837 4.9168 13.1043 2.61583C18.2381 -1.52662e-05 24.9588 -1.52658e-05 38.4001 -1.52649e-05L157.844 -1.52569e-05C167.222 -1.52563e-05 171.911 -1.5256e-05 176.496 0.667305C180.567 1.2599 184.572 2.24374 188.455 3.60514C192.827 5.13821 196.982 7.31082 205.292 11.656L237.208 28.3439C245.518 32.6892 249.673 34.8618 254.045 36.3948C257.928 37.7562 261.933 38.7401 266.004 39.3327C270.589 40 275.278 40 284.656 40L493.6 40Z"
        fill="none" stroke="#333" stroke-width="3" stroke-linejoin="round" />

  <!-- 标注：标签页 -->
  <line x1="158" y1="0" x2="158" y2="-30" stroke="#e44" stroke-width="1.5" stroke-dasharray="4 3" />
  <line x1="285" y1="40" x2="285" y2="-30" stroke="#e44" stroke-width="1.5" stroke-dasharray="4 3" />
  <line x1="158" y1="-22" x2="285" y2="-22" stroke="#e44" stroke-width="1.5" />
  <text x="221" y="-12" text-anchor="middle" font-size="11" font-family="sans-serif" fill="#e44">标签页 Tab</text>

  <!-- 标注：主体顶部 -->
  <line x1="300" y1="40" x2="500" y2="40" stroke="#28a745" stroke-width="1" stroke-dasharray="4 3" />
  <text x="500" y="55" text-anchor="end" font-size="10" font-family="sans-serif" fill="#28a745">主体顶部 y≈40</text>

  <!-- 标注：圆角 -->
  <circle cx="518.9" cy="53.1" r="3" fill="#666" />
  <text x="480" y="80" text-anchor="end" font-size="10" font-family="sans-serif" fill="#666">圆角 (贝塞尔曲线)</text>
  <circle cx="13.1" cy="407.9" r="3" fill="#666" />
  <text x="20" y="398" font-size="10" font-family="sans-serif" fill="#666">圆角</text>

  <!-- 标注：毛玻璃效果说明 -->
  <rect x="30" y="340" width="200" height="24" rx="6" fill="rgba(0,0,0,0.07)" />
  <text x="130" y="356" text-anchor="middle" font-size="11" font-family="sans-serif" fill="#555">backdrop-filter: blur(6px)</text>

  <!-- 尺寸标注 -->
  <text x="266" y="410" text-anchor="middle" font-size="10" font-family="sans-serif" fill="#999">532 × 421</text>

  <!-- 底部弧度标注 -->
  <path d="M 2.6 395 Q 2.6 408 13.1 418.4" fill="none" stroke="#28a745" stroke-width="1" />
  <text x="25" y="395" font-size="9" font-family="sans-serif" fill="#28a745">r=12</text>
</svg>
