<svg width="37" height="26" viewBox="0 0 37 26" fill="none" xmlns="http://www.w3.org/2000/svg">
  <path d="M18.4923 14.674C17.9914 14.674 17.5008 14.4679 17.0203 14.0557L1.70203 0.784223C2.51982 0.261408 3.5574 0 4.81475 0H32.1852C33.4426 0 34.4751 0.261408 35.2826 0.784223L19.9644 14.0557C19.4941 14.4679 19.0035 14.674 18.4923 14.674ZM0.398674 23.5568C0.276005 23.2753 0.178892 22.9536 0.107335 22.5916C0.0357784 22.2297 0 21.8074 0 21.3248V4.67517C0 4.15236 0.0357784 3.70495 0.107335 3.33295C0.189115 2.96094 0.276005 2.69954 0.368007 2.54872L11.7455 12.4118L0.398674 23.5568ZM4.35475 26C3.79251 26 3.29161 25.9397 2.85205 25.819C2.42271 25.6984 2.06493 25.5375 1.7787 25.3364L13.4476 13.8596L15.6863 15.8202C16.1361 16.2022 16.5961 16.4938 17.0663 16.6949C17.5365 16.8859 18.0119 16.9814 18.4923 16.9814C18.9728 16.9814 19.4481 16.8859 19.9184 16.6949C20.3988 16.4938 20.8639 16.2022 21.3137 15.8202L23.5524 13.8596L35.2213 25.3364C34.9351 25.5375 34.5722 25.6984 34.1326 25.819C33.7033 25.9397 33.2075 26 32.6453 26H4.35475ZM36.6013 23.5568L25.2545 12.4118L36.632 2.54872C36.7138 2.69954 36.7956 2.96094 36.8773 3.33295C36.9591 3.70495 37 4.15236 37 4.67517V21.3248C37 21.8074 36.9591 22.2297 36.8773 22.5916C36.8058 22.9536 36.7138 23.2753 36.6013 23.5568Z" fill="black" fill-opacity="0.2"/>
</svg>
