<svg width="40" height="36" viewBox="0 0 40 36" fill="none" xmlns="http://www.w3.org/2000/svg">
  <path d="M38.5837 7.65646C39.0608 7.86498 39.4136 8.14797 39.6422 8.50543C39.8807 8.86289 40 9.23027 40 9.60759C40 9.99484 39.8807 10.3622 39.6422 10.7098C39.4136 11.0573 39.0608 11.3403 38.5837 11.5587L23.9881 18.2462C23.2228 18.5937 22.5171 18.8469 21.871 19.0058C21.2349 19.1647 20.6088 19.2391 19.9925 19.2292C19.3863 19.2391 18.7601 19.1647 18.1141 19.0058C17.4779 18.8469 16.7723 18.5937 15.997 18.2462L9.63101 15.3269L18.6359 11.1119C19.0732 11.241 19.5453 11.3055 20.0522 11.3055C20.5889 11.3055 21.0958 11.2311 21.5729 11.0821C22.0599 10.9332 22.4525 10.7346 22.7507 10.4863C23.0588 10.2282 23.2128 9.93526 23.2128 9.60759C23.2128 9.28985 23.0588 9.00686 22.7507 8.75863C22.4525 8.51039 22.0599 8.31677 21.5729 8.17776C21.0958 8.02881 20.5889 7.95434 20.0522 7.95434C19.5254 7.95434 19.0185 8.02881 18.5315 8.17776C18.0445 8.31677 17.6469 8.51039 17.3388 8.75863C17.0307 9.00686 16.8766 9.28985 16.8766 9.60759C16.8766 9.72675 16.9164 9.83597 16.9959 9.93526L7.5587 14.3588L1.41633 11.5587C0.939247 11.3403 0.581439 11.0573 0.3429 10.7098C0.1143 10.3622 0 9.99484 0 9.60759C0 9.23027 0.1143 8.86289 0.3429 8.50543C0.581439 8.14797 0.939247 7.86498 1.41633 7.65646L15.997 0.983889C16.7623 0.636359 17.468 0.383159 18.1141 0.224288C18.7601 0.0654174 19.3863 -0.0090533 19.9925 0.000876126C20.6088 -0.0090533 21.2349 0.0654174 21.871 0.224288C22.5171 0.383159 23.2228 0.636359 23.9881 0.983889L38.5837 7.65646ZM9.57138 17.5313L15.1472 20.0782C16.9164 20.8825 18.5315 21.2796 19.9925 21.2697C21.4635 21.2796 23.0786 20.8825 24.8379 20.0782L34.454 15.6844V20.808C34.454 21.9201 34.1111 22.9726 33.4253 23.9655C32.7494 24.9585 31.7803 25.8323 30.5181 26.5869C29.2558 27.3515 27.7351 27.9472 25.956 28.3742C24.1769 28.8111 22.1891 29.0295 19.9925 29.0295C17.8258 29.0295 15.8579 28.8111 14.0887 28.3742C12.3295 27.9472 10.8237 27.3515 9.57138 26.5869V17.5313ZM5.54603 15.6844L7.63325 16.6525V25.0826C6.95739 24.3975 6.44055 23.6776 6.08274 22.9229C5.72493 22.1584 5.54603 21.4534 5.54603 20.808V15.6844ZM7.63325 30.0423V25.0826C7.9016 25.3606 8.19978 25.6238 8.52777 25.872C8.85576 26.1202 9.20363 26.3585 9.57138 26.5869V30.0423H7.63325ZM6.45546 30.1466C6.45546 29.5608 6.62939 29.0891 6.97726 28.7317C7.33507 28.3841 7.80718 28.2104 8.39359 28.2104H8.79612C9.38253 28.2104 9.84967 28.3841 10.1975 28.7317C10.5553 29.0891 10.7343 29.5608 10.7343 30.1466V34.0638C10.7343 34.6496 10.5553 35.1163 10.1975 35.4638C9.84967 35.8213 9.38253 36 8.79612 36H8.39359C7.80718 36 7.33507 35.8213 6.97726 35.4638C6.62939 35.1163 6.45546 34.6496 6.45546 34.0638V30.1466Z" fill="black" fill-opacity="0.2"/>
</svg>
