<svg width="36" height="18" viewBox="0 0 36 18" fill="none" xmlns="http://www.w3.org/2000/svg">
  <path d="M1.31836 18C0.955078 18 0.644531 17.8711 0.386719 17.6133C0.128906 17.3438 0 17.0215 0 16.6465C0 16.2832 0.128906 15.9727 0.386719 15.7148C0.644531 15.457 0.955078 15.3281 1.31836 15.3281H34.2246C34.5879 15.3281 34.8984 15.457 35.1562 15.7148C35.4258 15.9727 35.5605 16.2832 35.5605 16.6465C35.5605 17.0215 35.4258 17.3438 35.1562 17.6133C34.8984 17.8711 34.5879 18 34.2246 18H1.31836ZM1.31836 10.3184C0.955078 10.3184 0.644531 10.1895 0.386719 9.93164C0.128906 9.67383 0 9.36328 0 9C0 8.625 0.128906 8.30859 0.386719 8.05078C0.644531 7.78125 0.955078 7.64648 1.31836 7.64648H34.2246C34.5879 7.64648 34.8984 7.78125 35.1562 8.05078C35.4258 8.30859 35.5605 8.625 35.5605 9C35.5605 9.36328 35.4258 9.67383 35.1562 9.93164C34.8984 10.1895 34.5879 10.3184 34.2246 10.3184H1.31836ZM1.31836 2.6543C0.955078 2.6543 0.644531 2.52539 0.386719 2.26758C0.128906 2.00977 0 1.69922 0 1.33594C0 0.960938 0.128906 0.644531 0.386719 0.386719C0.644531 0.128906 0.955078 0 1.31836 0H34.2246C34.5879 0 34.8984 0.128906 35.1562 0.386719C35.4258 0.644531 35.5605 0.960938 35.5605 1.33594C35.5605 1.69922 35.4258 2.00977 35.1562 2.26758C34.8984 2.52539 34.5879 2.6543 34.2246 2.6543H1.31836Z" fill="black" fill-opacity="0.8"/>
</svg>
