<svg width="34" height="34" viewBox="0 0 34 34" fill="none" xmlns="http://www.w3.org/2000/svg">
  <path d="M9.33906 24.5434C7.5515 22.7699 5.95243 20.9175 4.54185 18.9861C3.14342 17.0547 2.03684 15.1293 1.2221 13.2101C0.407368 11.2908 0 9.46874 0 7.74384C0 6.602 0.194564 5.53305 0.583691 4.53698C0.984979 3.54091 1.56259 2.67846 2.31652 1.94962C2.85157 1.43944 3.45351 0.989996 4.12232 0.601286C4.80329 0.200429 5.45386 0 6.07403 0C6.56044 0 6.99213 0.176134 7.3691 0.528403C7.74607 0.880672 8.15343 1.36049 8.5912 1.96785L11.6556 6.23151C11.9961 6.7174 12.2332 7.1547 12.367 7.54341C12.5007 7.93212 12.5676 8.30868 12.5676 8.6731C12.5676 8.97678 12.525 9.26224 12.4399 9.52947C12.3548 9.79671 12.1967 10.1308 11.9657 10.5316L10.2511 13.4652C10.1781 13.5988 10.1112 13.7203 10.0504 13.8296C10.0018 13.9389 9.97747 14.0482 9.97747 14.1576C9.97747 14.3033 9.99571 14.443 10.0322 14.5766C10.0808 14.7103 10.1295 14.8257 10.1781 14.9228C10.9077 16.3805 12.1663 18.0021 13.9539 19.7878C14.8172 20.6502 15.7049 21.4398 16.617 22.1565C17.529 22.861 18.3315 23.3712 19.0247 23.687C19.1949 23.7599 19.3469 23.8207 19.4807 23.8692C19.6266 23.9057 19.7847 23.9239 19.9549 23.9239C20.0765 23.9239 20.186 23.9118 20.2833 23.8875C20.3927 23.851 20.5325 23.7842 20.7028 23.687L23.6212 22.0836C24.0955 21.8285 24.4725 21.6645 24.7521 21.5916C25.044 21.5066 25.3298 21.4641 25.6094 21.4641C25.9378 21.4641 26.2539 21.5248 26.5579 21.6463C26.8741 21.7556 27.3119 22.0046 27.8712 22.3934L32.3219 25.582C32.9177 26.0071 33.3434 26.4019 33.5987 26.7663C33.8662 27.1308 34 27.5073 34 27.896C34 28.3941 33.8662 28.9285 33.5987 29.4995C33.3434 30.0704 32.8813 30.7324 32.2124 31.4855C31.5193 32.263 30.662 32.8764 29.6406 33.3258C28.6191 33.7753 27.5004 34 26.2843 34C24.5576 34 22.7275 33.587 20.794 32.761C18.8605 31.935 16.9149 30.8114 14.9571 29.3901C12.9993 27.9568 11.1266 26.3412 9.33906 24.5434Z" fill="black" fill-opacity="0.2"/>
</svg>
