<svg width="42" height="36" viewBox="0 0 42 36" fill="none" xmlns="http://www.w3.org/2000/svg">
  <path fill-rule="evenodd" clip-rule="evenodd" d="M26.6445 13.0038C28.0785 12.8398 29.5431 12.8953 30.9629 13.1473C31.0121 13.1559 31.0616 13.1638 31.1123 13.1727C31.8537 13.3046 32.5737 13.461 33.2871 13.7059C33.3318 13.7212 33.3768 13.7371 33.4229 13.7528C34.431 14.1001 35.3961 14.512 36.2998 15.0838C36.3442 15.1113 36.3888 15.1386 36.4346 15.1668C37.5571 15.867 38.6245 16.7512 39.4414 17.7948C39.4754 17.8371 39.5099 17.8801 39.5449 17.9237C40.5277 19.1598 41.2306 20.6254 41.5068 22.1844C41.5147 22.2278 41.5232 22.2716 41.5313 22.3163C41.6019 22.7496 41.6105 23.1782 41.6094 23.6161C41.6093 23.6537 41.6094 23.6915 41.6094 23.7303C41.6045 25.0365 41.3541 26.2983 40.7754 27.4774C40.733 27.564 40.6921 27.6517 40.6514 27.7391C40.2349 28.6188 39.6502 29.4185 38.9834 30.1249C38.9003 30.2134 38.8221 30.3035 38.7451 30.3973C38.6337 30.5289 38.5094 30.6386 38.3779 30.7499C38.3075 30.8109 38.2384 30.874 38.1709 30.9383C37.9061 31.1905 37.629 31.417 37.335 31.6346C37.2999 31.6607 37.2646 31.6869 37.2285 31.7137C37.195 31.7382 37.1615 31.7628 37.127 31.7879C37.0823 31.8205 37.0818 31.8201 37.0361 31.8534C36.9376 31.9155 36.8388 31.955 36.7305 31.9969C36.88 32.2969 37.029 32.5975 37.1787 32.8973C37.2483 33.0367 37.3182 33.1768 37.3877 33.3163C37.6775 33.8979 37.9689 34.479 38.2744 35.0526C38.3735 35.2388 38.4691 35.4269 38.5645 35.6151C38.5792 35.6439 38.5942 35.6733 38.6094 35.703C38.7098 35.9035 38.71 35.9038 38.71 35.9999C38.4299 35.9115 38.1597 35.8066 37.8897 35.6913C37.829 35.6656 37.8285 35.6657 37.7666 35.6395C37.638 35.585 37.5094 35.5301 37.3809 35.4754C37.2963 35.4396 37.2115 35.4039 37.127 35.368C36.9597 35.2971 36.7922 35.2262 36.625 35.1551C36.3063 35.0198 35.9872 34.885 35.668 34.7508C35.3923 34.6349 35.1165 34.5192 34.8408 34.4032L34.4229 34.2274C34.3551 34.1989 34.2876 34.1697 34.2197 34.1415C34.0657 34.0771 33.9125 34.0119 33.7617 33.9403C33.4722 33.8042 33.2578 33.7144 32.9424 33.8045C32.9063 33.814 32.8702 33.8241 32.833 33.8338C32.7068 33.8683 32.5815 33.9053 32.4561 33.9422C31.7396 34.1434 31.0105 34.2606 30.2744 34.3641C30.2294 34.3705 30.1841 34.3771 30.1377 34.3836C28.7911 34.5617 27.3107 34.5357 25.9707 34.3211C25.9225 34.3135 25.8739 34.3065 25.8242 34.2987C23.1034 33.8566 20.4621 32.7492 18.4287 30.8583C18.3363 30.7733 18.2424 30.6919 18.1455 30.6122C18.0142 30.5009 17.9041 30.3771 17.793 30.2459C17.6933 30.1309 17.5889 30.0207 17.4844 29.91C17.054 29.446 16.6895 28.9301 16.3731 28.3827C16.3569 28.3555 16.3409 28.3276 16.3242 28.2997C15.4904 26.8976 15.052 25.3348 15.0635 23.7049C15.0636 23.6656 15.0634 23.6254 15.0635 23.5848C15.0666 22.9614 15.1033 22.3621 15.2539 21.7547C15.2631 21.7166 15.2727 21.6779 15.2822 21.6385C15.5728 20.464 16.0897 19.3323 16.8037 18.3543C16.8208 18.3309 16.8379 18.3072 16.8555 18.2831C17.4039 17.5375 18.0257 16.8233 18.7549 16.2499C18.8786 16.1522 18.9977 16.0499 19.1172 15.9471C20.1127 15.1189 21.326 14.4778 22.5274 14.0077C22.563 13.9936 22.5991 13.9792 22.6358 13.9647C23.6002 13.5874 24.6033 13.3108 25.626 13.1473C25.662 13.1414 25.6983 13.1348 25.7354 13.1288C25.9995 13.0861 26.2646 13.0494 26.5303 13.0174C26.568 13.0129 26.6057 13.0084 26.6445 13.0038ZM32.8565 21.0663C32.1505 20.6592 31.2534 20.7637 30.6621 21.3241C30.3181 21.6855 30.126 22.0937 30.1211 22.5936C30.1314 23.1415 30.3142 23.6011 30.7041 23.992C31.1209 24.3469 31.5776 24.4534 32.1104 24.4344C32.5642 24.3972 32.9852 24.1514 33.2871 23.8202C33.6657 23.3662 33.7699 22.8522 33.7178 22.2713C33.6341 21.7737 33.2551 21.3515 32.8565 21.0663ZM25.4775 20.9657C24.7841 20.6617 23.9265 20.8491 23.4199 21.4051C23.0074 21.9076 22.9267 22.3641 22.9658 23.0047C23.0997 23.4886 23.3496 23.8399 23.75 24.1366C24.2025 24.4226 24.6648 24.4931 25.1875 24.3905C25.234 24.3723 25.2801 24.3545 25.3252 24.3368C25.7329 24.1925 26.0556 23.9278 26.3027 23.5721C26.5619 23.1223 26.6209 22.5813 26.4922 22.0799C26.2923 21.5609 25.9623 21.2266 25.4775 20.9657Z" fill="black" fill-opacity="0.2"/>
  <path fill-rule="evenodd" clip-rule="evenodd" d="M10.8223 0.658058C13.7551 -0.143082 16.8939 -0.213486 19.8594 0.451027C19.9076 0.461794 19.9562 0.47216 20.0059 0.483254C21.2565 0.7705 22.489 1.18828 23.6465 1.74204C23.6947 1.76485 23.695 1.7647 23.7442 1.78794C23.9435 1.88281 24.1398 1.98361 24.335 2.08677C24.3841 2.11251 24.3845 2.11229 24.4346 2.13853C24.9689 2.42017 25.475 2.73127 25.9707 3.07603C25.998 3.09479 26.0256 3.11431 26.0537 3.13364C26.385 3.36125 26.6973 3.60375 27.001 3.86704C27.1144 3.96521 27.2321 4.05733 27.3506 4.14927C27.8687 4.57127 28.3623 5.06687 28.7715 5.59556C28.8618 5.71192 28.9588 5.82149 29.0557 5.93247C30.1187 7.20711 31.3934 9.32788 31.3936 11.0379C31.118 11.0181 30.8441 10.9918 30.5703 10.9549C28.6905 10.7148 26.7293 10.743 24.8721 11.1444C24.7567 11.1692 24.6411 11.1926 24.5254 11.2157C22.8117 11.5643 21.1587 12.1894 19.6436 13.0614C19.6059 13.083 19.5681 13.1046 19.5293 13.1268C19.0702 13.3913 18.6312 13.6722 18.2109 13.995C18.1394 14.0499 18.0673 14.1041 17.9951 14.1581C17.6679 14.4043 17.3554 14.6663 17.0469 14.9354C16.9976 14.9781 16.9482 15.0212 16.8984 15.0633C14.8428 16.8025 13.4887 19.425 13.0596 22.0555C13.0515 22.104 13.0434 22.153 13.0352 22.203C12.9695 22.6388 12.9592 23.0658 12.9619 23.5057C12.962 23.5414 12.9628 23.5773 12.9629 23.6141C12.9645 24.1467 12.9893 24.6698 13.0596 25.1981C13.069 25.2947 13.0776 25.3915 13.0859 25.4881C13.0908 25.5422 13.0908 25.5424 13.0957 25.5975C13.0978 25.6216 13.1004 25.646 13.1025 25.6708C12.5887 25.6214 12.095 25.5215 11.5938 25.4002C11.4655 25.3693 11.3364 25.3387 11.208 25.3084C10.7367 25.1956 10.276 25.0691 9.8213 24.9002C9.78688 24.8879 9.75226 24.8758 9.71681 24.8631C9.68692 24.852 9.65677 24.8405 9.62599 24.829C9.39415 24.7838 9.19155 24.8799 8.98243 24.9715C8.95444 24.9837 8.92631 24.9961 8.89747 25.0086C8.83663 25.0351 8.77559 25.0611 8.71485 25.0877C8.54623 25.1617 8.37702 25.2354 8.20802 25.3084C8.15429 25.3317 8.15345 25.3316 8.09864 25.3553C7.72532 25.5168 7.35007 25.6735 6.97462 25.8299C6.01599 26.2293 5.06119 26.6379 4.10743 27.0487C4.09325 27.0203 4.07907 26.991 4.06446 26.9618C4.11016 26.8548 4.11012 26.8545 4.1836 26.7157C4.20383 26.677 4.20402 26.6769 4.22462 26.6376C4.25446 26.5806 4.28435 26.5235 4.31446 26.4667C4.39815 26.3086 4.48096 26.1498 4.56349 25.9911C4.58154 25.9564 4.59957 25.9213 4.61817 25.8856C4.84254 25.4536 5.06073 25.0183 5.27833 24.5829C5.3242 24.4911 5.37006 24.3992 5.41602 24.3075C5.48133 24.1771 5.54619 24.0463 5.61134 23.9159C5.63071 23.8772 5.65095 23.8385 5.67091 23.7987C5.78744 23.5648 5.89704 23.3285 6.00099 23.0887C5.91721 23.0283 5.8328 22.9675 5.74903 22.9071C5.67801 22.8558 5.60711 22.8041 5.53614 22.7528C5.31145 22.5902 5.3106 22.59 5.08497 22.4295C4.81303 22.2365 4.56723 22.0237 4.32227 21.7977C4.26782 21.75 4.21304 21.7024 4.15821 21.6551C3.72886 21.2794 3.32134 20.8931 2.94532 20.4637C2.92576 20.4416 2.9059 20.4192 2.88575 20.3963C1.74211 19.0958 0.905994 17.5567 0.406259 15.9012C0.397314 15.8716 0.388131 15.8419 0.378915 15.8114C0.0967663 14.8588 -0.00033586 13.8708 9.02809e-06 12.8807C-2.25179e-05 12.8418 4.13225e-05 12.8027 9.02809e-06 12.7626C0.00371085 11.0067 0.475652 9.31143 1.30958 7.76743C1.32435 7.73961 1.33928 7.71114 1.3545 7.68247C1.70609 7.0229 2.1303 6.41129 2.60059 5.83091C2.61948 5.80753 2.63875 5.78371 2.65821 5.75962C2.97068 5.37711 3.31314 5.02361 3.66114 4.67368C3.69184 4.64265 3.69211 4.64208 3.72364 4.61021C4.00867 4.32279 4.30686 4.05906 4.62403 3.80747C4.67891 3.76247 4.73341 3.71697 4.78809 3.67173C5.14901 3.37666 5.52216 3.11179 5.91505 2.86118C5.94236 2.84357 5.96992 2.82562 5.99806 2.80747C7.46472 1.86292 9.05813 1.15507 10.7373 0.682473C10.7652 0.674635 10.7936 0.666133 10.8223 0.658058ZM22.0752 7.44321C21.3548 7.06375 20.458 7.10374 19.8848 7.72935C19.8616 7.75665 19.8389 7.7839 19.8164 7.8104C19.7928 7.83767 19.769 7.864 19.7461 7.89048C19.4053 8.31226 19.3339 8.73534 19.374 9.26548C19.4329 9.73279 19.6835 10.1236 20.0371 10.4217C20.4928 10.7517 20.9435 10.8445 21.4951 10.7801C21.9898 10.6847 22.3767 10.4018 22.6699 9.994C22.9414 9.55155 23.033 9.07376 22.9375 8.56138C22.797 8.08461 22.498 7.70098 22.0752 7.44321ZM11.5059 7.56236C10.7001 6.97872 9.73105 7.12724 9.05665 7.8104C8.71654 8.18619 8.59847 8.56531 8.60255 9.06528C8.62265 9.56555 8.8227 9.99971 9.18458 10.3436C9.60626 10.699 10.0242 10.8113 10.5635 10.7958C10.9948 10.7555 11.4049 10.5829 11.6992 10.2606C12.0892 9.78727 12.2511 9.28691 12.1983 8.67075C12.1121 8.21973 11.8526 7.85214 11.5059 7.56236Z" fill="black" fill-opacity="0.2"/>
</svg>
