<svg width="42" height="37" viewBox="0 0 42 37" fill="none" xmlns="http://www.w3.org/2000/svg">
  <path d="M15.8906 35.1562V23.8008C15.8906 23.4023 16.0137 23.0801 16.2598 22.834C16.5059 22.5879 16.834 22.4648 17.2441 22.4648H24.75C25.1602 22.4648 25.4824 22.5879 25.7168 22.834C25.9629 23.0801 26.0859 23.4023 26.0859 23.8008V35.1562H15.8906ZM1.51172 18.7734C1.04297 18.7734 0.673828 18.6328 0.404297 18.3516C0.134766 18.0586 0 17.7305 0 17.3672C0 16.9102 0.1875 16.5293 0.5625 16.2246L18.8789 0.84375C19.5352 0.28125 20.2383 0 20.9883 0C21.7383 0 22.4414 0.28125 23.0977 0.84375L41.4141 16.2246C41.7891 16.5293 41.9766 16.9102 41.9766 17.3672C41.9766 17.7305 41.8418 18.0586 41.5723 18.3516C41.3145 18.6328 40.9453 18.7734 40.4648 18.7734C40.2188 18.7734 39.9902 18.7148 39.7793 18.5977C39.5801 18.4805 39.3926 18.3516 39.2168 18.2109L21.6035 3.42773C21.416 3.26367 21.2109 3.18164 20.9883 3.18164C20.7656 3.18164 20.5605 3.26367 20.373 3.42773L2.77734 18.2109C2.58984 18.3516 2.39062 18.4805 2.17969 18.5977C1.98047 18.7148 1.75781 18.7734 1.51172 18.7734ZM32.4316 9.43945V5.23828C32.4316 4.85156 32.5488 4.54688 32.7832 4.32422C33.0176 4.08984 33.3223 3.97266 33.6973 3.97266H35.5781C35.9648 3.97266 36.2695 4.08984 36.4922 4.32422C36.7266 4.54688 36.8438 4.85156 36.8438 5.23828V13.166L32.4316 9.43945ZM9.10547 36.9668C7.85156 36.9668 6.87305 36.627 6.16992 35.9473C5.47852 35.2793 5.13281 34.3242 5.13281 33.082V13.6055L7.96289 11.707V32.3789C7.96289 32.9531 8.10938 33.3867 8.40234 33.6797C8.70703 33.9844 9.14062 34.1367 9.70312 34.1367H32.291C32.8535 34.1367 33.2812 33.9844 33.5742 33.6797C33.8672 33.3867 34.0137 32.9531 34.0137 32.3789V11.6895L36.8438 13.6055V33.082C36.8438 34.3125 36.498 35.2676 35.8066 35.9473C35.1152 36.627 34.1426 36.9668 32.8887 36.9668H9.10547Z" fill="black" fill-opacity="0.8"/>
</svg>
